<svg xmlns="http://www.w3.org/2000/svg" xmlns:xlink="http://www.w3.org/1999/xlink" width="500" zoomAndPan="magnify" viewBox="0 0 375 374.999991" height="500" preserveAspectRatio="xMidYMid meet" version="1.0"><defs><g/><clipPath id="1ab8ee32f4"><rect x="0" width="118" y="0" height="114"/></clipPath></defs><rect x="-37.5" width="450" fill="#ffffff" y="-37.499999" height="449.999989" fill-opacity="1"/><rect x="-37.5" width="450" fill="#000000" y="-37.499999" height="449.999989" fill-opacity="1"/><g transform="matrix(1, 0, 0, 1, 105, 89)"><g clip-path="url(#1ab8ee32f4)"><g fill="#ffffff" fill-opacity="1"><g transform="translate(7.304342, 84.574787)"><g><path d="M 29.3125 3.515625 C 27.28125 4.023438 25.441406 3.707031 23.796875 2.5625 C 22.910156 1.9375 22.40625 1.019531 22.28125 -0.1875 C 22.207031 -1.144531 22.425781 -2.160156 22.9375 -3.234375 C 23.695312 -4.753906 24.648438 -6.179688 25.796875 -7.515625 C 26.867188 -8.910156 28.070312 -10.195312 29.40625 -11.375 C 30.738281 -12.550781 32.101562 -13.644531 33.5 -14.65625 C 35.664062 -16.175781 37.859375 -17.648438 40.078125 -19.078125 C 42.296875 -20.515625 44.578125 -21.832031 46.921875 -23.03125 C 47.679688 -23.351562 48.0625 -23.894531 48.0625 -24.65625 C 48.0625 -25.164062 48.078125 -25.640625 48.109375 -26.078125 C 48.148438 -26.523438 48.132812 -26.96875 48.0625 -27.40625 C 48 -28.613281 47.554688 -29.726562 46.734375 -30.75 C 46.035156 -31.507812 45.210938 -32.046875 44.265625 -32.359375 C 43.304688 -32.617188 42.351562 -32.78125 41.40625 -32.84375 C 40.457031 -32.90625 39.472656 -32.875 38.453125 -32.75 C 36.679688 -32.613281 34.953125 -32.320312 33.265625 -31.875 C 31.585938 -31.4375 29.921875 -30.960938 28.265625 -30.453125 C 26.046875 -29.890625 23.8125 -29.304688 21.5625 -28.703125 C 19.3125 -28.097656 17.070312 -27.476562 14.84375 -26.84375 C 12.875 -26.269531 10.878906 -25.890625 8.859375 -25.703125 C 8.410156 -25.640625 7.945312 -25.625 7.46875 -25.65625 C 7 -25.6875 6.507812 -25.703125 6 -25.703125 C 5.113281 -25.765625 4.300781 -25.984375 3.5625 -26.359375 C 2.832031 -26.742188 2.117188 -27.222656 1.421875 -27.796875 C 1.109375 -28.046875 0.867188 -28.34375 0.703125 -28.6875 C 0.546875 -29.039062 0.40625 -29.441406 0.28125 -29.890625 C 0.03125 -30.648438 -0.0625 -31.410156 0 -32.171875 C 0.0625 -32.929688 0.1875 -33.691406 0.375 -34.453125 C 0.632812 -35.472656 0.96875 -36.457031 1.375 -37.40625 C 1.789062 -38.363281 2.222656 -39.285156 2.671875 -40.171875 C 4.066406 -42.960938 5.601562 -45.640625 7.28125 -48.203125 C 8.957031 -50.773438 10.8125 -53.238281 12.84375 -55.59375 C 16.53125 -59.90625 20.910156 -63.457031 25.984375 -66.25 C 27.441406 -67.070312 28.929688 -67.769531 30.453125 -68.34375 C 31.984375 -68.914062 33.539062 -69.390625 35.125 -69.765625 C 35.882812 -69.898438 36.644531 -70.03125 37.40625 -70.15625 C 38.164062 -70.28125 38.894531 -70.375 39.59375 -70.4375 C 41.050781 -70.5625 42.382812 -70.46875 43.59375 -70.15625 C 46.707031 -69.332031 48.800781 -67.554688 49.875 -64.828125 C 50.695312 -62.796875 50.921875 -60.664062 50.546875 -58.4375 C 50.285156 -57.039062 49.976562 -55.660156 49.625 -54.296875 C 49.28125 -52.941406 48.828125 -51.628906 48.265625 -50.359375 C 47.429688 -48.390625 46.285156 -46.578125 44.828125 -44.921875 C 44.390625 -44.359375 43.914062 -43.945312 43.40625 -43.6875 C 43.40625 -43.6875 43.3125 -43.6875 43.125 -43.6875 C 42.988281 -43.75 42.957031 -43.878906 43.03125 -44.078125 C 43.03125 -44.078125 43.09375 -44.140625 43.21875 -44.265625 C 44.675781 -45.847656 45.863281 -47.59375 46.78125 -49.5 C 47.707031 -51.40625 48.390625 -53.40625 48.828125 -55.5 C 48.953125 -56.195312 49.078125 -56.894531 49.203125 -57.59375 C 49.335938 -58.289062 49.4375 -58.988281 49.5 -59.6875 C 49.6875 -61.90625 49.242188 -64.09375 48.171875 -66.25 C 48.097656 -66.375 48 -66.53125 47.875 -66.71875 C 47.75 -66.914062 47.625 -67.078125 47.5 -67.203125 C 47.050781 -68.023438 46.289062 -68.53125 45.21875 -68.71875 C 44.519531 -68.914062 43.804688 -69.03125 43.078125 -69.0625 C 42.347656 -69.09375 41.632812 -69.046875 40.9375 -68.921875 C 35.15625 -68.085938 29.789062 -65.925781 24.84375 -62.4375 C 22.363281 -60.726562 20.09375 -58.8125 18.03125 -56.6875 C 15.96875 -54.5625 14.019531 -52.289062 12.1875 -49.875 C 8.945312 -45.625 6.1875 -41.054688 3.90625 -36.171875 C 3.582031 -35.347656 3.273438 -34.535156 2.984375 -33.734375 C 2.703125 -32.941406 2.5 -32.101562 2.375 -31.21875 C 2.3125 -30.707031 2.3125 -30.195312 2.375 -29.6875 C 2.4375 -29.1875 2.535156 -28.679688 2.671875 -28.171875 C 2.859375 -27.535156 3.269531 -27.1875 3.90625 -27.125 C 5.425781 -26.875 7.007812 -26.84375 8.65625 -27.03125 C 10.25 -27.15625 11.804688 -27.390625 13.328125 -27.734375 C 14.847656 -28.085938 16.335938 -28.488281 17.796875 -28.9375 C 20.210938 -29.570312 22.609375 -30.207031 24.984375 -30.84375 C 27.367188 -31.476562 29.734375 -32.113281 32.078125 -32.75 C 33.023438 -33 33.957031 -33.21875 34.875 -33.40625 C 35.800781 -33.601562 36.738281 -33.734375 37.6875 -33.796875 C 38.457031 -33.859375 39.222656 -33.875 39.984375 -33.84375 C 40.742188 -33.8125 41.503906 -33.726562 42.265625 -33.59375 C 44.171875 -33.21875 45.945312 -32.269531 47.59375 -30.75 C 48.925781 -29.476562 49.65625 -27.921875 49.78125 -26.078125 L 49.78125 -25.3125 C 49.84375 -25 49.921875 -24.8125 50.015625 -24.75 C 50.109375 -24.6875 50.316406 -24.71875 50.640625 -24.84375 L 51.203125 -25.125 C 53.492188 -26.082031 55.796875 -27.035156 58.109375 -27.984375 C 60.429688 -28.929688 62.765625 -29.789062 65.109375 -30.5625 C 66.117188 -30.9375 67.144531 -31.265625 68.1875 -31.546875 C 69.238281 -31.835938 70.273438 -32.109375 71.296875 -32.359375 C 71.867188 -32.484375 72.234375 -32.53125 72.390625 -32.5 C 72.546875 -32.46875 72.847656 -32.203125 73.296875 -31.703125 C 73.171875 -31.441406 72.992188 -31.3125 72.765625 -31.3125 C 72.546875 -31.3125 72.34375 -31.28125 72.15625 -31.21875 C 70.757812 -30.84375 69.394531 -30.460938 68.0625 -30.078125 C 66.726562 -29.703125 65.394531 -29.257812 64.0625 -28.75 C 61.90625 -27.925781 59.726562 -27.097656 57.53125 -26.265625 C 55.34375 -25.441406 53.203125 -24.523438 51.109375 -23.515625 L 50.546875 -23.21875 C 49.972656 -23.09375 49.59375 -22.648438 49.40625 -21.890625 C 49.082031 -20.492188 48.617188 -19.113281 48.015625 -17.75 C 47.421875 -16.382812 46.773438 -15.066406 46.078125 -13.796875 C 44.992188 -11.898438 43.847656 -10.0625 42.640625 -8.28125 C 41.429688 -6.5 40.097656 -4.785156 38.640625 -3.140625 C 37.941406 -2.316406 37.210938 -1.539062 36.453125 -0.8125 C 35.691406 -0.0820312 34.867188 0.597656 33.984375 1.234375 C 33.285156 1.742188 32.554688 2.203125 31.796875 2.609375 C 31.035156 3.023438 30.207031 3.328125 29.3125 3.515625 Z M 25.796875 2.671875 C 26.554688 2.671875 27.300781 2.554688 28.03125 2.328125 C 28.757812 2.109375 29.441406 1.835938 30.078125 1.515625 C 31.722656 0.628906 33.148438 -0.414062 34.359375 -1.625 C 35.441406 -2.570312 36.410156 -3.566406 37.265625 -4.609375 C 38.117188 -5.660156 38.957031 -6.757812 39.78125 -7.90625 C 41.050781 -9.675781 42.257812 -11.484375 43.40625 -13.328125 C 44.550781 -15.171875 45.535156 -17.070312 46.359375 -19.03125 C 46.484375 -19.351562 46.640625 -19.703125 46.828125 -20.078125 C 47.023438 -20.460938 47.15625 -20.878906 47.21875 -21.328125 C 46.957031 -21.328125 46.71875 -21.273438 46.5 -21.171875 C 46.28125 -21.078125 46.070312 -20.96875 45.875 -20.84375 C 43.019531 -19.257812 40.328125 -17.578125 37.796875 -15.796875 C 36.773438 -15.097656 35.753906 -14.382812 34.734375 -13.65625 C 33.722656 -12.925781 32.773438 -12.148438 31.890625 -11.328125 C 30.679688 -10.304688 29.550781 -9.222656 28.5 -8.078125 C 27.457031 -6.941406 26.492188 -5.738281 25.609375 -4.46875 C 25.285156 -3.96875 24.960938 -3.445312 24.640625 -2.90625 C 24.328125 -2.363281 24.109375 -1.804688 23.984375 -1.234375 C 23.671875 -0.222656 23.703125 0.726562 24.078125 1.625 C 24.398438 2.382812 24.972656 2.734375 25.796875 2.671875 Z M 25.796875 2.671875 "/></g></g></g><g fill="#ffffff" fill-opacity="1"><g transform="translate(77.83933, 84.574787)"><g><path d="M 13.328125 -23.328125 C 12.691406 -22.878906 12.085938 -22.71875 11.515625 -22.84375 C 10.941406 -22.96875 10.367188 -23.222656 9.796875 -23.609375 C 9.546875 -23.734375 9.328125 -24.082031 9.140625 -24.65625 C 9.015625 -25.164062 8.953125 -25.6875 8.953125 -26.21875 C 8.953125 -26.757812 8.984375 -27.316406 9.046875 -27.890625 C 9.234375 -29.035156 9.484375 -30.160156 9.796875 -31.265625 C 10.117188 -32.378906 10.503906 -33.472656 10.953125 -34.546875 C 11.015625 -34.742188 11.09375 -34.9375 11.1875 -35.125 C 11.28125 -35.3125 11.265625 -35.5 11.140625 -35.6875 C 10.941406 -35.6875 10.8125 -35.625 10.75 -35.5 C 10.6875 -35.375 10.59375 -35.25 10.46875 -35.125 L 5.234375 -28.75 C 4.921875 -28.363281 4.570312 -27.976562 4.1875 -27.59375 C 3.800781 -27.21875 3.453125 -26.84375 3.140625 -26.46875 C 3.078125 -26.394531 2.984375 -26.328125 2.859375 -26.265625 C 2.734375 -26.203125 2.601562 -26.109375 2.46875 -25.984375 C 1.644531 -25.410156 0.914062 -25.472656 0.28125 -26.171875 C 0.09375 -26.367188 0 -26.59375 0 -26.84375 L 0.28125 -28.171875 C 1.175781 -30.585938 2.476562 -32.648438 4.1875 -34.359375 C 4.507812 -34.679688 4.859375 -34.9375 5.234375 -35.125 C 5.742188 -35.570312 6.441406 -35.664062 7.328125 -35.40625 L 7.8125 -35.21875 C 8.3125 -34.96875 8.640625 -34.890625 8.796875 -34.984375 C 8.960938 -35.078125 9.203125 -35.3125 9.515625 -35.6875 L 12.28125 -39.125 C 12.34375 -39.25 12.46875 -39.40625 12.65625 -39.59375 C 13.039062 -39.976562 13.453125 -40.039062 13.890625 -39.78125 C 14.210938 -39.59375 14.34375 -39.34375 14.28125 -39.03125 C 14.21875 -38.769531 14.15625 -38.53125 14.09375 -38.3125 C 14.03125 -38.09375 13.929688 -37.851562 13.796875 -37.59375 C 13.359375 -36.394531 12.914062 -35.222656 12.46875 -34.078125 C 12.019531 -32.929688 11.640625 -31.722656 11.328125 -30.453125 C 11.078125 -29.628906 10.867188 -28.820312 10.703125 -28.03125 C 10.546875 -27.238281 10.5 -26.398438 10.5625 -25.515625 C 10.5625 -25.253906 10.578125 -25.015625 10.609375 -24.796875 C 10.640625 -24.578125 10.6875 -24.335938 10.75 -24.078125 C 10.882812 -23.828125 11.078125 -23.734375 11.328125 -23.796875 C 11.640625 -23.859375 11.921875 -23.953125 12.171875 -24.078125 C 12.429688 -24.203125 12.691406 -24.332031 12.953125 -24.46875 C 14.210938 -25.289062 15.382812 -26.238281 16.46875 -27.3125 C 16.976562 -27.820312 17.484375 -28.347656 17.984375 -28.890625 C 18.492188 -29.429688 18.972656 -29.953125 19.421875 -30.453125 C 19.609375 -30.585938 19.78125 -30.734375 19.9375 -30.890625 C 20.101562 -31.046875 20.25 -31.1875 20.375 -31.3125 C 20.6875 -31.632812 21.003906 -31.695312 21.328125 -31.5 C 21.765625 -31.3125 21.796875 -31.0625 21.421875 -30.75 C 20.660156 -29.925781 19.894531 -29.097656 19.125 -28.265625 C 18.363281 -27.441406 17.570312 -26.648438 16.75 -25.890625 C 16.3125 -25.503906 15.898438 -25.132812 15.515625 -24.78125 C 15.128906 -24.4375 14.6875 -24.109375 14.1875 -23.796875 Z M 1.8125 -27.03125 C 2.125 -27.15625 2.375 -27.328125 2.5625 -27.546875 C 2.757812 -27.773438 2.953125 -27.984375 3.140625 -28.171875 C 4.023438 -29.128906 4.863281 -30.097656 5.65625 -31.078125 C 6.457031 -32.054688 7.269531 -33.023438 8.09375 -33.984375 C 8.40625 -34.421875 8.273438 -34.738281 7.703125 -34.9375 C 7.328125 -35 6.976562 -34.9375 6.65625 -34.75 C 6.40625 -34.675781 6.148438 -34.53125 5.890625 -34.3125 C 5.640625 -34.09375 5.421875 -33.890625 5.234375 -33.703125 C 3.773438 -31.984375 2.601562 -29.984375 1.71875 -27.703125 C 1.582031 -27.503906 1.613281 -27.28125 1.8125 -27.03125 Z M 1.8125 -27.03125 "/></g></g></g><g fill="#ffffff" fill-opacity="1"><g transform="translate(96.686718, 84.574787)"><g><path d="M 6 -39.5 C 5.488281 -39.6875 5.234375 -40.003906 5.234375 -40.453125 C 5.421875 -41.085938 5.675781 -41.597656 6 -41.984375 C 6.125 -42.234375 6.34375 -42.296875 6.65625 -42.171875 C 6.726562 -42.171875 6.828125 -42.109375 6.953125 -41.984375 C 6.890625 -41.910156 6.859375 -41.8125 6.859375 -41.6875 C 6.535156 -41.375 6.46875 -41.054688 6.65625 -40.734375 C 6.789062 -40.546875 6.789062 -40.359375 6.65625 -40.171875 C 6.59375 -39.722656 6.375 -39.5 6 -39.5 Z M 5.140625 -23.21875 C 4.253906 -22.90625 3.269531 -23.003906 2.1875 -23.515625 C 1.613281 -23.828125 1.265625 -24.332031 1.140625 -25.03125 L 0.953125 -26.359375 C 1.140625 -28.960938 1.804688 -31.410156 2.953125 -33.703125 C 3.203125 -34.078125 3.421875 -34.359375 3.609375 -34.546875 C 3.742188 -34.679688 3.921875 -34.710938 4.140625 -34.640625 C 4.359375 -34.578125 4.5 -34.484375 4.5625 -34.359375 C 4.5625 -34.296875 4.578125 -34.234375 4.609375 -34.171875 C 4.648438 -34.109375 4.632812 -34.046875 4.5625 -33.984375 C 3.800781 -32.773438 3.296875 -31.519531 3.046875 -30.21875 C 2.796875 -28.914062 2.601562 -27.597656 2.46875 -26.265625 C 2.34375 -25.503906 2.375 -24.835938 2.5625 -24.265625 C 2.757812 -23.953125 3.015625 -23.796875 3.328125 -23.796875 C 3.648438 -23.796875 3.953125 -23.859375 4.234375 -23.984375 C 4.523438 -24.109375 4.796875 -24.203125 5.046875 -24.265625 C 5.617188 -24.585938 6.1875 -24.921875 6.75 -25.265625 C 7.320312 -25.617188 7.894531 -25.984375 8.46875 -26.359375 C 9.550781 -27.191406 10.628906 -28.035156 11.703125 -28.890625 C 12.785156 -29.742188 13.863281 -30.582031 14.9375 -31.40625 C 15.132812 -31.601562 15.296875 -31.734375 15.421875 -31.796875 C 15.796875 -32.171875 16.238281 -32.140625 16.75 -31.703125 C 16.8125 -31.703125 16.859375 -31.664062 16.890625 -31.59375 C 16.921875 -31.53125 16.90625 -31.46875 16.84375 -31.40625 L 16.46875 -31.03125 C 15.070312 -29.820312 13.644531 -28.660156 12.1875 -27.546875 C 10.726562 -26.441406 9.203125 -25.414062 7.609375 -24.46875 C 7.234375 -24.207031 6.835938 -23.96875 6.421875 -23.75 C 6.015625 -23.53125 5.585938 -23.351562 5.140625 -23.21875 Z M 5.140625 -23.21875 "/></g></g></g></g></g></svg>