<svg xmlns="http://www.w3.org/2000/svg" xmlns:xlink="http://www.w3.org/1999/xlink" width="500" zoomAndPan="magnify" viewBox="0 0 375 374.999991" height="500" preserveAspectRatio="xMidYMid meet" version="1.0"><defs><g/></defs><g fill="#ffffff" fill-opacity="1"><g transform="translate(8.462055, 227.442762)"><g><path d="M 26.421875 -57.015625 L 25.515625 -57.375 C 23.109375 -58.9375 20.726562 -60.53125 18.375 -62.15625 C 16.019531 -63.789062 13.816406 -65.632812 11.765625 -67.6875 C 11.398438 -67.925781 11.097656 -68.226562 10.859375 -68.59375 C 10.734375 -68.832031 10.582031 -69.007812 10.40625 -69.125 C 10.226562 -69.25 10.078125 -69.375 9.953125 -69.5 C 9.347656 -70.46875 9.046875 -71.550781 9.046875 -72.75 C 9.046875 -74.082031 9.585938 -74.988281 10.671875 -75.46875 C 10.921875 -75.59375 11.164062 -75.742188 11.40625 -75.921875 C 11.644531 -76.097656 11.882812 -76.25 12.125 -76.375 C 12.363281 -76.5 12.632812 -76.617188 12.9375 -76.734375 C 13.238281 -76.859375 13.507812 -76.976562 13.75 -77.09375 C 14.351562 -77.34375 14.925781 -77.613281 15.46875 -77.90625 C 16.007812 -78.207031 16.582031 -78.484375 17.1875 -78.734375 C 17.789062 -78.972656 18.363281 -79.242188 18.90625 -79.546875 C 19.457031 -79.847656 20.03125 -80.117188 20.625 -80.359375 C 21.59375 -80.722656 22.46875 -81.144531 23.25 -81.625 C 24.039062 -82.101562 24.675781 -82.828125 25.15625 -83.796875 C 25.882812 -84.515625 26.609375 -84.9375 27.328125 -85.0625 C 28.054688 -85.300781 28.421875 -85 28.421875 -84.15625 C 28.421875 -83.1875 27.992188 -82.28125 27.140625 -81.4375 C 26.546875 -80.957031 25.972656 -80.503906 25.421875 -80.078125 C 24.878906 -79.660156 24.304688 -79.332031 23.703125 -79.09375 C 22.984375 -78.601562 22.257812 -78.175781 21.53125 -77.8125 C 20.8125 -77.457031 20.085938 -77.097656 19.359375 -76.734375 C 18.640625 -76.367188 17.914062 -76.003906 17.1875 -75.640625 C 16.46875 -75.285156 15.742188 -74.925781 15.015625 -74.5625 C 13.816406 -74.082031 12.851562 -73.539062 12.125 -72.9375 C 11.519531 -72.570312 11.398438 -72.085938 11.765625 -71.484375 C 12.242188 -71.003906 12.691406 -70.550781 13.109375 -70.125 C 13.535156 -69.707031 14.050781 -69.316406 14.65625 -68.953125 C 18.15625 -66.054688 21.773438 -63.34375 25.515625 -60.8125 C 25.878906 -60.570312 26.269531 -60.300781 26.6875 -60 C 27.113281 -59.695312 27.507812 -59.363281 27.875 -59 C 28.238281 -58.632812 28.238281 -58.148438 27.875 -57.546875 C 27.75 -57.191406 27.265625 -57.015625 26.421875 -57.015625 Z M 26.421875 -57.015625 "/></g></g></g><g fill="#ffffff" fill-opacity="1"><g transform="translate(45.923371, 227.442762)"><g/></g></g><g fill="#ffffff" fill-opacity="1"><g transform="translate(91.166509, 227.442762)"><g><path d="M 28.046875 10.3125 C 23.703125 10.3125 21.832031 8.140625 22.4375 3.796875 C 23.28125 -1.023438 25.03125 -5.878906 27.6875 -10.765625 C 30.34375 -15.648438 33.507812 -20.414062 37.1875 -25.0625 C 40.875 -29.707031 44.707031 -34.082031 48.6875 -38.1875 C 52.664062 -42.289062 56.40625 -45.910156 59.90625 -49.046875 C 60.75 -49.648438 61.203125 -50.3125 61.265625 -51.03125 C 61.328125 -51.757812 61.234375 -52.609375 60.984375 -53.578125 C 60.140625 -56.347656 58.753906 -58.1875 56.828125 -59.09375 C 54.898438 -60 52.664062 -60.453125 50.125 -60.453125 C 43.976562 -60.453125 38.191406 -59.484375 32.765625 -57.546875 L 18.09375 -52.671875 C 17.007812 -52.304688 15.894531 -51.941406 14.75 -51.578125 C 13.601562 -51.210938 12.425781 -50.910156 11.21875 -50.671875 C 10.613281 -50.554688 10.070312 -50.46875 9.59375 -50.40625 C 9.113281 -50.34375 8.75 -50.3125 8.5 -50.3125 C 6.445312 -50.3125 4.515625 -50.972656 2.703125 -52.296875 C 0.898438 -53.628906 0 -55.441406 0 -57.734375 C -0.125 -58.816406 -0.0976562 -59.867188 0.078125 -60.890625 C 0.265625 -61.921875 0.476562 -62.976562 0.71875 -64.0625 C 2.65625 -70.820312 5.367188 -77.789062 8.859375 -84.96875 C 12.359375 -92.144531 16.398438 -99.050781 20.984375 -105.6875 C 25.578125 -112.332031 30.285156 -118.066406 35.109375 -122.890625 C 37.523438 -125.304688 40.359375 -127.71875 43.609375 -130.125 C 46.867188 -132.539062 50.304688 -134.5625 53.921875 -136.1875 C 57.546875 -137.820312 60.988281 -138.640625 64.25 -138.640625 C 64.96875 -138.390625 65.390625 -138.023438 65.515625 -137.546875 C 65.515625 -136.828125 65.15625 -136.46875 64.4375 -136.46875 C 61.78125 -136.21875 59.273438 -135.519531 56.921875 -134.375 C 54.566406 -133.226562 52.300781 -131.992188 50.125 -130.671875 C 45.0625 -127.410156 40.175781 -123.273438 35.46875 -118.265625 C 30.769531 -113.265625 26.425781 -107.773438 22.4375 -101.796875 C 18.457031 -95.828125 14.957031 -89.703125 11.9375 -83.421875 C 8.925781 -77.148438 6.515625 -71.179688 4.703125 -65.515625 C 4.335938 -64.304688 4.003906 -63.097656 3.703125 -61.890625 C 3.398438 -60.691406 3.191406 -59.425781 3.078125 -58.09375 C 3.078125 -57.851562 3.078125 -57.613281 3.078125 -57.375 C 3.078125 -57.132812 3.078125 -56.890625 3.078125 -56.640625 C 3.078125 -56.046875 3.132812 -55.566406 3.25 -55.203125 C 3.25 -54.359375 3.796875 -53.816406 4.890625 -53.578125 C 5.128906 -53.453125 5.457031 -53.390625 5.875 -53.390625 C 6.300781 -53.390625 6.753906 -53.390625 7.234375 -53.390625 C 8.679688 -53.390625 10.128906 -53.570312 11.578125 -53.9375 C 12.421875 -54.175781 13.265625 -54.472656 14.109375 -54.828125 C 14.960938 -55.191406 15.8125 -55.5 16.65625 -55.75 C 17.5 -55.988281 18.34375 -56.257812 19.1875 -56.5625 C 20.03125 -56.863281 20.875 -57.132812 21.71875 -57.375 C 25.9375 -58.695312 30.21875 -59.960938 34.5625 -61.171875 C 38.90625 -62.378906 43.3125 -62.984375 47.78125 -62.984375 C 51.039062 -62.984375 53.816406 -62.617188 56.109375 -61.890625 C 58.398438 -61.171875 60.390625 -59.242188 62.078125 -56.109375 C 62.316406 -55.617188 62.554688 -55.222656 62.796875 -54.921875 C 63.035156 -54.617188 63.21875 -54.347656 63.34375 -54.109375 C 63.46875 -53.628906 63.769531 -53.390625 64.25 -53.390625 C 64.488281 -53.390625 65.453125 -54.050781 67.140625 -55.375 C 70.035156 -57.914062 72.988281 -60.453125 76 -62.984375 C 79.019531 -65.515625 82.039062 -67.988281 85.0625 -70.40625 C 85.300781 -70.644531 85.601562 -70.914062 85.96875 -71.21875 C 86.332031 -71.519531 86.691406 -71.789062 87.046875 -72.03125 C 87.410156 -72.269531 87.773438 -72.476562 88.140625 -72.65625 C 88.503906 -72.84375 88.863281 -73.054688 89.21875 -73.296875 C 89.34375 -73.421875 89.523438 -73.484375 89.765625 -73.484375 C 90.242188 -73.484375 90.546875 -73.300781 90.671875 -72.9375 C 91.035156 -72.8125 91.21875 -72.445312 91.21875 -71.84375 C 91.21875 -71.363281 91.097656 -71.003906 90.859375 -70.765625 C 90.734375 -70.640625 90.519531 -70.457031 90.21875 -70.21875 C 89.914062 -69.976562 89.582031 -69.738281 89.21875 -69.5 C 85.363281 -66.476562 81.59375 -63.457031 77.90625 -60.4375 C 74.226562 -57.425781 70.582031 -54.289062 66.96875 -51.03125 C 65.28125 -49.582031 64.4375 -47.894531 64.4375 -45.96875 C 64.4375 -43.070312 64.101562 -40.265625 63.4375 -37.546875 C 62.769531 -34.835938 62.078125 -32.09375 61.359375 -29.3125 C 59.785156 -24.007812 57.671875 -18.820312 55.015625 -13.75 C 52.359375 -8.6875 49.160156 -4.132812 45.421875 -0.09375 C 41.679688 3.945312 37.21875 7.113281 32.03125 9.40625 C 31.070312 9.894531 29.988281 10.195312 28.78125 10.3125 Z M 26.96875 7.78125 C 27.445312 7.78125 27.75 7.71875 27.875 7.59375 C 29.925781 7 31.675781 6.15625 33.125 5.0625 C 41.5625 0 47.863281 -6.78125 52.03125 -15.28125 C 56.195312 -23.789062 59.242188 -32.8125 61.171875 -42.34375 C 61.296875 -42.59375 61.359375 -43.140625 61.359375 -43.984375 C 61.234375 -44.703125 60.929688 -44.941406 60.453125 -44.703125 C 59.960938 -44.460938 59.660156 -44.28125 59.546875 -44.15625 C 59.304688 -44.039062 59.003906 -43.800781 58.640625 -43.4375 C 54.054688 -39.09375 49.5625 -34.503906 45.15625 -29.671875 C 40.75 -24.847656 36.859375 -19.722656 33.484375 -14.296875 C 32.640625 -12.847656 31.582031 -10.859375 30.3125 -8.328125 C 29.050781 -5.796875 27.9375 -3.234375 26.96875 -0.640625 C 26 1.953125 25.515625 4.15625 25.515625 5.96875 C 25.515625 7.175781 26 7.78125 26.96875 7.78125 Z M 26.96875 7.78125 "/></g></g></g><g fill="#ffffff" fill-opacity="1"><g transform="translate(178.214316, 227.442762)"><g><path d="M 17.015625 -41.8125 C 15.328125 -41.8125 14 -42.710938 13.03125 -44.515625 C 12.664062 -45.117188 12.484375 -45.785156 12.484375 -46.515625 C 12.367188 -46.878906 12.3125 -47.238281 12.3125 -47.59375 C 12.3125 -47.957031 12.25 -48.320312 12.125 -48.6875 C 12 -50.613281 12.054688 -52.507812 12.296875 -54.375 C 12.546875 -56.25 12.910156 -58.15625 13.390625 -60.09375 C 13.628906 -61.050781 14.050781 -62.644531 14.65625 -64.875 C 15.257812 -67.113281 15.953125 -69.53125 16.734375 -72.125 C 17.523438 -74.71875 18.367188 -77.039062 19.265625 -79.09375 C 20.171875 -81.144531 21.050781 -82.410156 21.90625 -82.890625 C 21.65625 -83.015625 21.46875 -83.101562 21.34375 -83.15625 C 21.226562 -83.21875 21.113281 -83.25 21 -83.25 C 20.875 -83.25 20.691406 -83.128906 20.453125 -82.890625 C 19.609375 -82.285156 19.066406 -81.625 18.828125 -80.90625 C 18.097656 -79.9375 17.367188 -78.96875 16.640625 -78 C 15.921875 -77.039062 15.257812 -76.078125 14.65625 -75.109375 C 13.9375 -74.140625 13.210938 -73.171875 12.484375 -72.203125 C 11.765625 -71.242188 11.039062 -70.28125 10.3125 -69.3125 C 9.832031 -68.832031 9.410156 -68.320312 9.046875 -67.78125 C 8.679688 -67.238281 8.257812 -66.664062 7.78125 -66.0625 C 7.300781 -65.570312 6.847656 -65.085938 6.421875 -64.609375 C 6.003906 -64.128906 5.550781 -63.644531 5.0625 -63.15625 C 4.582031 -62.675781 3.921875 -62.4375 3.078125 -62.4375 C 1.390625 -62.4375 0.425781 -63.34375 0.1875 -65.15625 C -0.0625 -66.96875 0.0546875 -68.351562 0.546875 -69.3125 C 1.148438 -71 2.050781 -72.867188 3.25 -74.921875 C 4.457031 -76.972656 5.90625 -78.78125 7.59375 -80.34375 C 9.289062 -81.914062 11.039062 -82.703125 12.84375 -82.703125 C 13.6875 -82.703125 14.234375 -82.644531 14.484375 -82.53125 L 15.203125 -82.34375 C 15.679688 -82.34375 16.285156 -82.707031 17.015625 -83.4375 C 17.492188 -84.039062 17.972656 -84.644531 18.453125 -85.25 C 18.941406 -85.851562 19.425781 -86.453125 19.90625 -87.046875 C 20.382812 -87.648438 20.835938 -88.222656 21.265625 -88.765625 C 21.691406 -89.316406 22.144531 -89.890625 22.625 -90.484375 C 23.101562 -91.085938 23.582031 -91.597656 24.0625 -92.015625 C 24.550781 -92.441406 25.097656 -92.898438 25.703125 -93.390625 C 25.816406 -93.503906 26.054688 -93.5625 26.421875 -93.5625 C 27.390625 -93.5625 27.929688 -93.203125 28.046875 -92.484375 C 28.535156 -91.640625 28.476562 -90.550781 27.875 -89.21875 C 27.632812 -88.625 27.332031 -88.050781 26.96875 -87.5 C 26.601562 -86.957031 26.300781 -86.382812 26.0625 -85.78125 C 25.820312 -85.300781 25.519531 -84.789062 25.15625 -84.25 C 24.789062 -83.707031 24.488281 -83.132812 24.25 -82.53125 C 22.320312 -78.664062 20.632812 -74.742188 19.1875 -70.765625 C 17.738281 -66.785156 16.59375 -62.679688 15.75 -58.453125 C 15.382812 -56.648438 15.082031 -54.84375 14.84375 -53.03125 C 14.601562 -51.21875 14.539062 -49.40625 14.65625 -47.59375 C 14.65625 -46.988281 14.6875 -46.351562 14.75 -45.6875 C 14.8125 -45.03125 15.203125 -44.582031 15.921875 -44.34375 C 16.046875 -44.21875 16.289062 -44.15625 16.65625 -44.15625 C 17.132812 -44.15625 18.035156 -44.726562 19.359375 -45.875 C 20.691406 -47.019531 22.050781 -48.253906 23.4375 -49.578125 C 24.820312 -50.910156 25.695312 -51.816406 26.0625 -52.296875 C 27.03125 -53.503906 28.023438 -54.710938 29.046875 -55.921875 C 30.078125 -57.128906 31.070312 -58.335938 32.03125 -59.546875 C 33 -60.753906 33.9375 -61.988281 34.84375 -63.25 C 35.75 -64.519531 36.679688 -65.757812 37.640625 -66.96875 L 42.53125 -72.9375 C 42.769531 -73.175781 43.070312 -73.296875 43.4375 -73.296875 C 43.675781 -73.296875 43.859375 -73.238281 43.984375 -73.125 C 44.460938 -72.632812 44.582031 -72.085938 44.34375 -71.484375 C 44.21875 -71.003906 43.976562 -70.523438 43.625 -70.046875 C 42.414062 -68.472656 41.238281 -66.898438 40.09375 -65.328125 C 38.945312 -63.765625 37.769531 -62.140625 36.5625 -60.453125 C 35.351562 -58.878906 34.082031 -57.304688 32.75 -55.734375 C 31.425781 -54.171875 30.101562 -52.601562 28.78125 -51.03125 C 28.289062 -50.550781 27.832031 -50.097656 27.40625 -49.671875 C 26.988281 -49.253906 26.539062 -48.804688 26.0625 -48.328125 C 25.582031 -47.835938 25.128906 -47.351562 24.703125 -46.875 C 24.285156 -46.394531 23.832031 -45.910156 23.34375 -45.421875 C 22.019531 -44.097656 20.570312 -43.070312 19 -42.34375 C 18.28125 -41.988281 17.617188 -41.8125 17.015625 -41.8125 Z M 3.4375 -66.234375 C 3.675781 -66.484375 3.914062 -66.609375 4.15625 -66.609375 C 4.15625 -66.609375 4.28125 -66.726562 4.53125 -66.96875 C 5.488281 -68.175781 6.453125 -69.378906 7.421875 -70.578125 C 8.390625 -71.785156 9.351562 -72.992188 10.3125 -74.203125 L 13.578125 -79.09375 C 13.578125 -79.09375 13.578125 -79.148438 13.578125 -79.265625 C 13.578125 -79.390625 13.578125 -79.570312 13.578125 -79.8125 C 13.335938 -80.050781 13.035156 -80.113281 12.671875 -80 C 10.253906 -78.789062 8.203125 -77.066406 6.515625 -74.828125 C 4.828125 -72.597656 3.679688 -70.21875 3.078125 -67.6875 L 2.890625 -66.96875 C 3.015625 -66.84375 3.101562 -66.71875 3.15625 -66.59375 C 3.21875 -66.476562 3.3125 -66.359375 3.4375 -66.234375 Z M 3.4375 -66.234375 "/></g></g></g><g fill="#ffffff" fill-opacity="1"><g transform="translate(218.390217, 227.442762)"><g><path d="M 0.1875 -45.25 C -3.070312 -45.25 -5.003906 -46.9375 -5.609375 -50.3125 C -5.847656 -51.757812 -5.847656 -53.144531 -5.609375 -54.46875 C -5.003906 -58.332031 -3.859375 -61.953125 -2.171875 -65.328125 C -0.484375 -68.710938 1.503906 -71.972656 3.796875 -75.109375 C 4.285156 -75.710938 4.769531 -75.953125 5.25 -75.828125 C 5.488281 -75.828125 5.789062 -75.554688 6.15625 -75.015625 C 6.519531 -74.472656 6.578125 -74.082031 6.328125 -73.84375 C 6.085938 -73.363281 5.875 -72.941406 5.6875 -72.578125 C 5.507812 -72.210938 5.300781 -71.910156 5.0625 -71.671875 C 3.257812 -69.253906 1.785156 -66.6875 0.640625 -63.96875 C -0.503906 -61.257812 -1.503906 -58.457031 -2.359375 -55.5625 C -2.710938 -53.382812 -2.832031 -51.453125 -2.71875 -49.765625 C -2.71875 -48.554688 -2.171875 -47.953125 -1.078125 -47.953125 L -0.359375 -48.140625 C 0.722656 -48.265625 1.925781 -48.925781 3.25 -50.125 C 6.632812 -52.175781 9.472656 -54.53125 11.765625 -57.1875 L 23.703125 -69.859375 C 23.953125 -70.097656 24.195312 -70.367188 24.4375 -70.671875 C 24.675781 -70.972656 24.914062 -71.242188 25.15625 -71.484375 C 25.394531 -71.722656 25.632812 -71.960938 25.875 -72.203125 C 26.125 -72.453125 26.367188 -72.695312 26.609375 -72.9375 C 26.847656 -73.175781 27.085938 -73.296875 27.328125 -73.296875 C 27.804688 -73.296875 28.132812 -73.082031 28.3125 -72.65625 C 28.5 -72.238281 28.65625 -71.847656 28.78125 -71.484375 C 28.78125 -70.878906 28.023438 -69.703125 26.515625 -67.953125 C 25.003906 -66.203125 23.132812 -64.210938 20.90625 -61.984375 C 18.675781 -59.753906 16.410156 -57.550781 14.109375 -55.375 C 11.816406 -53.207031 9.828125 -51.367188 8.140625 -49.859375 C 6.453125 -48.347656 5.488281 -47.472656 5.25 -47.234375 C 5.007812 -47.117188 4.796875 -47 4.609375 -46.875 C 4.429688 -46.75 4.222656 -46.628906 3.984375 -46.515625 C 3.859375 -46.390625 3.675781 -46.265625 3.4375 -46.140625 C 3.195312 -46.023438 2.957031 -45.90625 2.71875 -45.78125 C 1.875 -45.425781 1.03125 -45.25 0.1875 -45.25 Z M 7.78125 -80.71875 C 7.175781 -81.320312 6.9375 -81.804688 7.0625 -82.171875 L 7.59375 -83.25 C 8.082031 -83.976562 8.535156 -84.671875 8.953125 -85.328125 C 9.378906 -85.992188 9.773438 -86.628906 10.140625 -87.234375 C 10.378906 -87.710938 10.648438 -88.132812 10.953125 -88.5 C 11.253906 -88.863281 11.523438 -89.285156 11.765625 -89.765625 C 12.003906 -90.242188 12.242188 -90.664062 12.484375 -91.03125 C 12.722656 -91.394531 12.96875 -91.816406 13.21875 -92.296875 C 13.332031 -92.785156 13.628906 -93.03125 14.109375 -93.03125 C 14.359375 -93.03125 14.539062 -92.96875 14.65625 -92.84375 C 14.894531 -92.601562 15.015625 -92.484375 15.015625 -92.484375 C 15.015625 -92.242188 15.078125 -92.0625 15.203125 -91.9375 C 15.203125 -91.21875 15.140625 -90.796875 15.015625 -90.671875 C 14.054688 -88.984375 13.09375 -87.320312 12.125 -85.6875 C 11.15625 -84.0625 10.070312 -82.523438 8.875 -81.078125 C 8.507812 -80.710938 8.144531 -80.59375 7.78125 -80.71875 Z M 7.78125 -80.71875 "/></g></g></g><g fill="#ffffff" fill-opacity="1"><g transform="translate(243.002497, 227.442762)"><g><path d="M 9.953125 0 C 9.347656 0 9.046875 -0.359375 9.046875 -1.078125 C 9.046875 -1.804688 9.109375 -2.234375 9.234375 -2.359375 C 12.003906 -9.710938 14.351562 -17.007812 16.28125 -24.25 C 17.25 -27.875 18.242188 -31.523438 19.265625 -35.203125 C 20.296875 -38.878906 21.296875 -42.585938 22.265625 -46.328125 C 25.035156 -56.953125 28.050781 -67.359375 31.3125 -77.546875 C 34.570312 -87.742188 38.128906 -97.972656 41.984375 -108.234375 C 42.953125 -111.128906 43.976562 -113.992188 45.0625 -116.828125 C 46.144531 -119.660156 47.234375 -122.460938 48.328125 -125.234375 C 49.410156 -128.015625 50.492188 -130.820312 51.578125 -133.65625 C 52.660156 -136.488281 53.75 -139.351562 54.84375 -142.25 C 54.957031 -142.738281 55.070312 -143.160156 55.1875 -143.515625 C 55.3125 -143.878906 55.4375 -144.125 55.5625 -144.25 C 56.039062 -144.851562 56.460938 -145.09375 56.828125 -144.96875 C 56.953125 -144.84375 57.039062 -144.78125 57.09375 -144.78125 C 57.15625 -144.78125 57.25 -144.722656 57.375 -144.609375 C 57.375 -144.367188 57.429688 -144.1875 57.546875 -144.0625 C 57.796875 -143.457031 57.796875 -142.972656 57.546875 -142.609375 C 57.429688 -142.492188 57.34375 -142.34375 57.28125 -142.15625 C 57.21875 -141.976562 57.128906 -141.769531 57.015625 -141.53125 C 50.734375 -124.632812 44.695312 -107.707031 38.90625 -90.75 C 33.113281 -73.800781 28.046875 -56.519531 23.703125 -38.90625 C 22.253906 -32.875 20.65625 -26.898438 18.90625 -20.984375 C 17.15625 -15.078125 15.257812 -9.226562 13.21875 -3.4375 C 13.09375 -3.070312 12.96875 -2.707031 12.84375 -2.34375 C 12.726562 -1.988281 12.550781 -1.566406 12.3125 -1.078125 C 12.1875 -0.359375 11.640625 0 10.671875 0 Z M 9.953125 0 "/></g></g></g><g fill="#ffffff" fill-opacity="1"><g transform="translate(309.600401, 227.442762)"><g><path d="M 10.671875 -58.453125 C 10.066406 -58.453125 9.765625 -58.753906 9.765625 -59.359375 C 10.015625 -60.691406 10.617188 -61.597656 11.578125 -62.078125 L 15.921875 -64.796875 L 28.234375 -70.765625 C 28.835938 -71.003906 29.441406 -71.304688 30.046875 -71.671875 C 30.648438 -72.148438 30.648438 -72.632812 30.046875 -73.125 L 28.953125 -73.65625 C 27.390625 -74.5 25.851562 -75.28125 24.34375 -76 C 22.832031 -76.726562 21.296875 -77.515625 19.734375 -78.359375 C 18.160156 -79.210938 16.585938 -80 15.015625 -80.71875 C 13.453125 -81.445312 11.882812 -82.109375 10.3125 -82.703125 C 10.070312 -82.828125 9.890625 -82.921875 9.765625 -82.984375 C 9.648438 -83.046875 9.59375 -83.078125 9.59375 -83.078125 C 9.226562 -83.429688 9.046875 -83.789062 9.046875 -84.15625 C 9.046875 -84.757812 9.46875 -85.125 10.3125 -85.25 C 10.550781 -85.125 10.914062 -85.0625 11.40625 -85.0625 C 11.644531 -85.0625 12.003906 -84.941406 12.484375 -84.703125 C 13.691406 -84.097656 14.867188 -83.550781 16.015625 -83.0625 C 17.160156 -82.582031 18.335938 -82.101562 19.546875 -81.625 C 20.753906 -81.144531 21.898438 -80.628906 22.984375 -80.078125 C 24.066406 -79.535156 25.15625 -78.960938 26.25 -78.359375 C 27.332031 -77.878906 28.414062 -77.367188 29.5 -76.828125 C 30.582031 -76.285156 31.726562 -75.773438 32.9375 -75.296875 C 33.414062 -75.171875 34.019531 -74.804688 34.75 -74.203125 C 35.46875 -73.835938 35.648438 -73.234375 35.296875 -72.390625 C 34.691406 -71.179688 33.785156 -70.335938 32.578125 -69.859375 L 27.6875 -67.328125 C 24.789062 -65.992188 21.894531 -64.664062 19 -63.34375 C 16.101562 -62.019531 13.328125 -60.390625 10.671875 -58.453125 Z M 10.671875 -58.453125 "/></g></g></g></svg>